<?xml version="1.0" encoding="UTF-8"?>
<svg xmlns="http://www.w3.org/2000/svg" xmlns:xlink="http://www.w3.org/1999/xlink" width="192px" height="192px" viewBox="0 0 144 144" version="1.1">
<g id="surface1">
<path style=" stroke:none;fill-rule:nonzero;fill:rgb(94.117647%,74.509805%,74.509805%);fill-opacity:1;" d="M 117 15.011719 C 131.640625 26.957031 142.007812 43.980469 144 63 C 145.0625 85.039062 140.1875 104.574219 125.304688 121.324219 C 113.574219 133.976562 96.527344 143.253906 79.082031 144.09375 C 56.957031 144.714844 37.769531 139.292969 21.304688 124.03125 C 8.714844 111.832031 0.34375 94.5625 -0.152344 76.945312 C -0.433594 54.925781 5.75 35.980469 21.246094 19.984375 C 46.855469 -5.265625 88.792969 -6.90625 117 15.011719 Z M 117 15.011719 "/>
<path style=" stroke:none;fill-rule:nonzero;fill:rgb(86.666667%,68.627453%,68.627453%);fill-opacity:1;" d="M 66.75 49.5 C 71.796875 51.675781 75.808594 56.324219 78.5625 60.984375 C 80.113281 63.578125 81.222656 65.332031 84 66.75 C 88.253906 67.324219 91.785156 67.347656 95.671875 65.4375 C 98.285156 63.027344 99.824219 61.257812 100.5 57.75 C 100.550781 56.3125 100.5625 54.875 100.546875 53.4375 C 100.539062 52.699219 100.535156 51.960938 100.527344 51.199219 C 100.519531 50.636719 100.507812 50.078125 100.5 49.5 C 107.472656 55.300781 113.878906 61.742188 120.339844 68.101562 C 122.472656 70.199219 124.613281 72.285156 126.769531 74.355469 C 128.871094 76.371094 130.953125 78.40625 133.019531 80.457031 C 133.804688 81.230469 134.601562 81.996094 135.402344 82.757812 C 141.628906 88.671875 141.628906 88.671875 141.921875 91.914062 C 141.554688 93.695312 141.042969 95.117188 140.25 96.75 C 140.027344 97.277344 139.804688 97.804688 139.578125 98.347656 C 138.941406 99.824219 138.230469 101.234375 137.484375 102.65625 C 137.21875 103.175781 136.949219 103.691406 136.675781 104.226562 C 127.746094 121.308594 114.007812 134.5 95.539062 140.726562 C 88.601562 142.890625 81.796875 144.140625 74.53125 144.328125 C 73.976562 144.363281 73.425781 144.398438 72.855469 144.433594 C 71.210938 144.464844 69.839844 144.414062 68.25 144 C 66.359375 142.058594 66.359375 142.058594 65.476562 140.804688 C 64.390625 139.355469 63.222656 138.320312 61.835938 137.164062 C 58.132812 133.980469 54.707031 130.550781 51.265625 127.089844 C 50.261719 126.085938 50.261719 126.085938 49.238281 125.058594 C 47.480469 123.296875 45.722656 121.53125 43.964844 119.765625 C 42.171875 117.964844 40.378906 116.167969 38.585938 114.371094 C 35.4375 111.21875 32.292969 108.0625 29.148438 104.902344 C 27.933594 103.683594 26.714844 102.464844 25.5 101.25 C 45.050781 101.25 64.605469 101.25 84.75 101.25 C 85.054688 90.019531 85.054688 90.019531 81 84.75 C 79.632812 83.546875 79.632812 83.546875 78.140625 82.734375 C 77.671875 82.453125 77.203125 82.171875 76.71875 81.882812 C 72.410156 79.671875 68.804688 78.550781 63.984375 78.046875 C 57.289062 77.082031 53.984375 73.621094 49.769531 68.605469 C 48.691406 67.4375 47.546875 66.5 46.296875 65.523438 C 44.347656 63.835938 43.6875 63.257812 43.5 60.75 C 44.03125 61.210938 44.03125 61.210938 44.570312 61.679688 C 45.035156 62.085938 45.503906 62.488281 45.984375 62.90625 C 46.445312 63.304688 46.90625 63.707031 47.382812 64.117188 C 50.769531 66.917969 52.9375 67.074219 57.203125 66.984375 C 61.046875 66.542969 62.933594 64.589844 65.53125 61.921875 C 67.382812 57.863281 66.984375 53.894531 66.75 49.5 Z M 66.75 49.5 "/>
<path style=" stroke:none;fill-rule:nonzero;fill:rgb(99.607843%,99.607843%,99.607843%);fill-opacity:1;" d="M 54.5625 76.265625 C 55.292969 76.269531 56.023438 76.273438 56.777344 76.277344 C 65.71875 76.429688 74.792969 78.132812 81.570312 84.488281 C 86.449219 90.207031 84.75 91.714844 84.75 101.25 C 65.199219 101.25 45.644531 101.25 25.5 101.25 C 25.5 88.5 25.5 88.5 27.09375 85.40625 C 34.695312 78.65625 44.6875 76.207031 54.5625 76.265625 Z M 54.5625 76.265625 "/>
<path style=" stroke:none;fill-rule:nonzero;fill:rgb(99.215686%,99.215686%,99.215686%);fill-opacity:1;" d="M 85.5 76.5 C 98.6875 76.058594 98.6875 76.058594 105 78.75 C 105.757812 79.070312 106.515625 79.386719 107.296875 79.71875 C 112.160156 81.945312 115.933594 83.722656 118.5 88.5 C 118.5 92.707031 118.5 96.914062 118.5 101.25 C 110.085938 101.25 101.671875 101.25 93 101.25 C 92.953125 98.914062 92.90625 96.578125 92.859375 94.171875 C 92.566406 86.433594 91.101562 81.945312 85.5 76.5 Z M 85.5 76.5 "/>
<path style=" stroke:none;fill-rule:nonzero;fill:rgb(99.607843%,99.215686%,99.215686%);fill-opacity:1;" d="M 92.25 42.75 C 96.171875 44.671875 99.285156 47.816406 101.25 51.75 C 101.546875 56.132812 101.21875 59.078125 99 63 C 95.855469 66.242188 93.269531 67.648438 88.78125 67.875 C 84.34375 67.855469 82.257812 66.765625 79.140625 63.691406 C 76.003906 59.730469 75.933594 55.921875 76.5 51 C 79.59375 44.316406 85.070312 41.476562 92.25 42.75 Z M 92.25 42.75 "/>
<path style=" stroke:none;fill-rule:nonzero;fill:rgb(99.607843%,99.215686%,99.215686%);fill-opacity:1;" d="M 60.015625 43.222656 C 63.710938 45.015625 66.03125 47.949219 67.5 51.75 C 68.167969 55.542969 67.960938 58.324219 66.234375 61.78125 C 63.792969 64.554688 61.296875 67.226562 57.507812 67.730469 C 52.730469 67.949219 49.839844 67.472656 46.195312 64.277344 C 43.613281 61.519531 42.84375 59.320312 42.421875 55.59375 C 42.609375 51.527344 44.121094 48.285156 46.855469 45.289062 C 50.753906 42.019531 55.230469 41.730469 60.015625 43.222656 Z M 60.015625 43.222656 "/>
<path style=" stroke:none;fill-rule:nonzero;fill:rgb(66.274512%,53.333336%,53.333336%);fill-opacity:1;" d="M 25.5 101.25 C 45.050781 101.25 64.605469 101.25 84.75 101.25 C 82.042969 102.605469 81.332031 102.9375 78.550781 102.910156 C 77.609375 102.90625 77.609375 102.90625 76.648438 102.902344 C 75.972656 102.890625 75.292969 102.878906 74.59375 102.871094 C 73.886719 102.867188 73.175781 102.863281 72.445312 102.859375 C 70.140625 102.84375 67.835938 102.820312 65.53125 102.796875 C 62.390625 102.773438 59.253906 102.757812 56.113281 102.742188 C 55.34375 102.742188 54.574219 102.738281 53.777344 102.734375 C 46.878906 102.71875 40.015625 102.945312 33.132812 103.429688 C 32.433594 103.472656 31.738281 103.511719 31.023438 103.554688 C 30.4375 103.597656 29.851562 103.640625 29.246094 103.6875 C 27.75 103.5 27.75 103.5 25.5 101.25 Z M 25.5 101.25 "/>
<path style=" stroke:none;fill-rule:nonzero;fill:rgb(71.372551%,58.823532%,58.823532%);fill-opacity:1;" d="M 43.5 60.75 C 43.851562 61.058594 44.207031 61.363281 44.570312 61.679688 C 45.035156 62.085938 45.503906 62.488281 45.984375 62.90625 C 46.675781 63.507812 46.675781 63.507812 47.382812 64.117188 C 50.769531 66.917969 52.9375 67.070312 57.203125 66.992188 C 61.40625 66.496094 63.984375 63.730469 66.75 60.75 C 66.203125 64.019531 64.675781 65.230469 62.179688 67.25 C 59.695312 68.984375 57.496094 69.945312 54.46875 69.46875 C 53.867188 69.238281 53.867188 69.238281 53.25 69 C 53.003906 69.742188 52.753906 70.484375 52.5 71.25 C 51.132812 70.070312 49.777344 68.882812 48.421875 67.6875 C 48.035156 67.355469 47.648438 67.023438 47.25 66.679688 C 45.195312 64.851562 43.757812 63.570312 43.5 60.75 Z M 43.5 60.75 "/>
<path style=" stroke:none;fill-rule:nonzero;fill:rgb(70.19608%,58.039218%,58.039218%);fill-opacity:1;" d="M 78 63 C 79.636719 63.761719 80.964844 64.46875 82.328125 65.660156 C 85.507812 67.734375 89.351562 67.207031 93 66.75 C 94.882812 65.953125 95.933594 65.109375 97.5 63.75 C 97.996094 63.503906 98.488281 63.253906 99 63 C 97.863281 66.179688 95.90625 67.410156 93 69 C 89.28125 70.03125 86.640625 69.78125 83.148438 68.328125 C 80.832031 66.957031 79.550781 65.179688 78 63 Z M 78 63 "/>
</g>
</svg>
